<svg id="圖層_1" data-name="圖層 1" xmlns="http://www.w3.org/2000/svg" viewBox="0 0 322.72 384"><defs><style>.cls-1{fill:#f7c81c;}</style></defs><title>cc_12</title><path class="cls-1" d="M240.15,337.56a43.2,43.2,0,0,1,69-34.61V49a36,36,0,0,0-34.92-36,147.47,147.47,0,0,1-265,121.13V337a36,36,0,0,0,36,36H258.62A43.13,43.13,0,0,1,240.15,337.56Z"/><path class="cls-1" d="M305.67,362.31a11.47,11.47,0,0,1-1.46-1.05c-3.18-3.15-6.34-6.33-9.51-9.5-.12-.12-.21-.28-.32-.41a21.79,21.79,0,1,1,2.75-2.75,3.94,3.94,0,0,1,.45.36q4.74,4.73,9.46,9.47a10.57,10.57,0,0,1,1,1.47v.87a2.57,2.57,0,0,1-1.55,1.54Zm-43-27.77a17.76,17.76,0,1,0,17.84-17.69,17.76,17.76,0,0,0-17.84,17.69h0Z"/><path class="cls-1" d="M306.54,362.31a2.57,2.57,0,0,0,1.55-1.54v1.54Z"/></svg>