<svg id="圖層_1" data-name="圖層 1" xmlns="http://www.w3.org/2000/svg" viewBox="0 0 322.72 384"><defs><style>.cls-1{font-size:43.2px;font-family:MicrosoftJhengHeiBold, Microsoft JhengHei;}.cls-1,.cls-4{fill:#7a4220;}.cls-2{font-size:28.8px;font-family:MicrosoftJhengHeiRegular, Microsoft JhengHei;}.cls-3{letter-spacing:-0.01em;}</style></defs><title>cc_3</title><text class="cls-1" transform="translate(23.63 251)">花椰菜<tspan class="cls-2"><tspan x="0" y="34.56">B</tspan><tspan class="cls-3" x="17.69" y="34.56">r</tspan><tspan x="28" y="34.56">occoli</tspan></tspan></text><path class="cls-4" d="M240.15,337.56a43.2,43.2,0,0,1,69-34.61V49a36,36,0,0,0-34.92-36A147.47,147.47,0,0,1,9.19,134.13V337a36,36,0,0,0,36,36H258.62A43.14,43.14,0,0,1,240.15,337.56Z"/><path class="cls-4" d="M305.67,362.31a11.05,11.05,0,0,1-1.46-1.05c-3.18-3.15-6.34-6.33-9.51-9.5-.12-.12-.21-.28-.32-.41a21.79,21.79,0,1,1,2.75-2.75,5.07,5.07,0,0,1,.45.36q4.74,4.73,9.46,9.47a10.53,10.53,0,0,1,1,1.47v.87a2.59,2.59,0,0,1-1.55,1.54Zm-43-27.77a17.76,17.76,0,1,0,17.84-17.69A17.78,17.78,0,0,0,262.63,334.54Z"/><path class="cls-4" d="M306.54,362.31a2.59,2.59,0,0,0,1.55-1.54v1.54Z"/></svg>