<?xml version="1.0" encoding="utf-8"?>
<!-- Generator: Adobe Illustrator 23.0.2, SVG Export Plug-In . SVG Version: 6.00 Build 0)  -->
<svg version="1.1" id="圖層_1" xmlns="http://www.w3.org/2000/svg" xmlns:xlink="http://www.w3.org/1999/xlink" x="0px" y="0px"
	 viewBox="0 0 322.7 384" style="enable-background:new 0 0 322.7 384;" xml:space="preserve">
<style type="text/css">
	.st0{fill:#70293B;}
	.st1{fill:#E17812;}
	.st2{fill:#FFFFFF;}
	.st3{fill:#473E72;}
	.st4{fill:#322832;}
	.st5{fill:#F4A318;}
	.st6{clip-path:url(#SVGID_14_);}
	.st7{clip-path:url(#SVGID_20_);}
	.st8{fill:#CF3423;}
	.st9{fill:#1B0C24;}
	.st10{fill:#795064;}
</style>
<g>
	<path class="st0" d="M240.1,337.6c0-23.9,19.4-43.2,43.2-43.2c9.3,0,18.3,3,25.8,8.6V49c0-19.5-15.5-35.4-34.9-36
		c22,78.4-23.7,159.8-102.1,181.8c-61.7,17.3-127.6-7.2-162.9-60.7V337c0,19.9,16.1,36,36,36h213.4
		C247,364.9,240.1,351.7,240.1,337.6z"/>
	<path class="st0" d="M305.7,362.3c-0.5-0.3-1-0.7-1.5-1c-3.2-3.1-6.3-6.3-9.5-9.5c-0.1-0.1-0.2-0.3-0.3-0.4
		c-9.2,7.7-23,6.5-30.7-2.8c-7.7-9.2-6.5-23,2.8-30.7c9.2-7.7,23-6.5,30.7,2.8c6.8,8.1,6.8,19.9,0,27.9c0.2,0.1,0.3,0.2,0.5,0.4
		c3.2,3.2,6.3,6.3,9.5,9.5c0.4,0.5,0.7,1,1,1.5v0.9c-0.3,0.7-0.8,1.3-1.5,1.5H305.7z M262.7,334.5c0,9.8,7.9,17.8,17.7,17.8
		c9.8,0,17.8-7.9,17.8-17.7c0-9.8-7.9-17.8-17.7-17.8C270.7,316.8,262.7,324.7,262.7,334.5C262.6,334.5,262.6,334.5,262.7,334.5
		L262.7,334.5z"/>
	<path class="st0" d="M306.5,362.3c0.7-0.3,1.3-0.8,1.5-1.5v1.5H306.5z"/>
</g>
</svg>
