<svg id="圖層_1" data-name="圖層 1" xmlns="http://www.w3.org/2000/svg" viewBox="0 0 91.15 136.34"><defs><style>.cls-1{fill:#9fcd25;}</style></defs><title>goright</title><path class="cls-1" d="M83.37,69.52s0-.08,0-.13a5,5,0,0,0,.06-.54,2.45,2.45,0,0,0,0-.27c0-.14,0-.27,0-.41s0-.27,0-.41a2.45,2.45,0,0,0,0-.27,5,5,0,0,0-.06-.54s0-.09,0-.13c0-.23-.08-.45-.14-.67h0a7.93,7.93,0,0,0-1.74-3.3,8.35,8.35,0,0,0-1.11-1L21,9.55a8,8,0,0,0-11.35.72h0a8,8,0,0,0,.72,11.35L63.26,68.17,10.4,114.72a8,8,0,0,0-.72,11.35h0a8,8,0,0,0,11.35.72L80.37,74.54a8.35,8.35,0,0,0,1.11-1,7.93,7.93,0,0,0,1.74-3.3h0C83.29,70,83.33,69.75,83.37,69.52Z"/></svg>