<svg id="圖層_1" data-name="圖層 1" xmlns="http://www.w3.org/2000/svg" viewBox="0 0 91.15 136.34"><defs><style>.cls-1{fill:#fff;}</style></defs><title>goleft-03</title><path class="cls-1" d="M80.75,114.72,27.89,68.17,80.75,21.62a8,8,0,0,0,.72-11.35h0a8,8,0,0,0-11.35-.72L10.78,61.8a8.35,8.35,0,0,0-1.11,1h0a8,8,0,0,0-1.75,3.3h0c-.06.22-.1.44-.14.67a.51.51,0,0,0,0,.13,5,5,0,0,0-.06.54,2.45,2.45,0,0,0,0,.27c0,.14,0,.27,0,.41s0,.27,0,.41a2.45,2.45,0,0,0,0,.27,5,5,0,0,0,.06.54.51.51,0,0,0,0,.13c0,.23.08.45.14.67h0a8,8,0,0,0,1.75,3.3h0a8.35,8.35,0,0,0,1.11,1l59.34,52.25a8,8,0,0,0,11.35-.72h0A8,8,0,0,0,80.75,114.72Z"/></svg>