<svg id="圖層_1" data-name="圖層 1" xmlns="http://www.w3.org/2000/svg" viewBox="0 0 91.15 136.34"><defs><style>.cls-1{fill:#9fcd25;}</style></defs><title>backs</title><path class="cls-1" d="M80.75,114.72,27.89,68.17,80.75,21.62a8,8,0,0,0,.78-11.29l-.06-.06h0a8,8,0,0,0-11.29-.78l-.06.06L10.78,61.8a8.09,8.09,0,0,0-1.11,1h0a7.93,7.93,0,0,0-1.75,3.3h0c-.06.22-.1.44-.14.67a.29.29,0,0,0,0,.13,5,5,0,0,0-.06.54V68.8a5,5,0,0,0,.06.54.29.29,0,0,0,0,.13,2.58,2.58,0,0,0,.14.67h0a7.93,7.93,0,0,0,1.75,3.3h0a8.09,8.09,0,0,0,1.11,1l59.34,52.25A8,8,0,0,0,81.41,126l.06-.06h0A8,8,0,0,0,80.75,114.72Z"/></svg>